<?xml version="1.0" encoding="utf-8"?>
<!-- Generator: Adobe Illustrator 23.0.5, SVG Export Plug-In . SVG Version: 6.00 Build 0)  -->
<svg version="1.1" id="Capa_1" xmlns="http://www.w3.org/2000/svg" xmlns:xlink="http://www.w3.org/1999/xlink" x="0px" y="0px"
	 viewBox="0 0 48 48" style="enable-background:new 0 0 48 48;" xml:space="preserve">
<style type="text/css">
	.st0{fill:#FFFFFF;}
</style>
<path class="st0" d="M36.85,5.18c-7.93,0-33.74,0-33.74,0v5.25c0,0,6.43-0.8,6.43,4.99s0,20.34,0,20.34s-0.24,2.49-2.49,2.49
	s-3.94,0-3.94,0v5.31h28.06v-5.79h-4.9c0,0-1.73-0.64-1.73-1.73c0-1.09,0-4.7,0-4.7s0.04-1.25,3.46-1.25c3.42,0,13.07,0,13.07,0
	S45,29.11,45,24.38s0-14.92,0-14.92S44.79,5.18,36.85,5.18z M30.72,23.62c0,0.78-0.63,1.41-1.41,1.41h-4.44V10.32h4.44
	c0.78,0,1.41,0.63,1.41,1.41V23.62z"/>
</svg>
