<?xml version="1.0" encoding="utf-8"?>
<!-- Generator: Adobe Illustrator 23.0.5, SVG Export Plug-In . SVG Version: 6.00 Build 0)  -->
<svg version="1.1" id="Capa_1" xmlns="http://www.w3.org/2000/svg" xmlns:xlink="http://www.w3.org/1999/xlink" x="0px" y="0px"
	 viewBox="0 0 281 53" style="enable-background:new 0 0 281 53;" xml:space="preserve">
<style type="text/css">
	.st0{fill:#FFFFFF;}
</style>
<g>
	<path class="st0" d="M274.13,50.46H7.34c-2.38,0-4.31-1.93-4.31-4.31V6.59c0-2.38,1.93-4.31,4.31-4.31h266.79
		c2.38,0,4.31,1.93,4.31,4.31v39.56C278.44,48.52,276.5,50.46,274.13,50.46z M7.34,3.11c-1.92,0-3.48,1.56-3.48,3.48v39.56
		c0,1.92,1.56,3.48,3.48,3.48h266.79c1.92,0,3.48-1.56,3.48-3.48V6.59c0-1.92-1.56-3.48-3.48-3.48H7.34z"/>
</g>
<g>
	<path class="st0" d="M103.32,37.04l-0.04,4.82l22,0.19l0.04-4.82l-4.11-0.04c0,0-1.58-0.1-1.57-1.6c0.01-1.5,0.06-6.63,0.06-6.63
		l12.62,12.84l16.26,0.14l0.04-4.52l-4.2-0.04c0,0-1.54-0.37-1.53-1.55c0.01-1.18,0.17-19.79,0.17-19.79s0.37-1.44,1.45-1.43
		s4.3,0.04,4.3,0.04l0.04-4.76l-21.69-0.19l-0.04,4.82l3.79,0.03c0,0,1.54,0.42,1.53,1.55c-0.01,1.14-0.07,7.48-0.07,7.48
		L118.9,9.87l-15.12-0.13l-0.04,4.63l3.7,0.03c0,0,1.64,0.77,1.64,1.67c-0.01,0.89-0.17,19.33-0.17,19.33s-0.24,1.69-1.71,1.68
		S103.32,37.04,103.32,37.04z"/>
	<path class="st0" d="M125.9,42.69l-23.25-0.2l0.05-6.07l4.51,0.04c0.91,0.01,1.08-1.1,1.09-1.14l0.16-19.25
		c0-0.24-0.55-0.72-1.16-1.04l-4.19-0.04l0.05-5.88l16,0.14l12.61,12.83l0.05-5.97c0-0.54-0.77-0.84-1-0.92l-4.32-0.04l0.05-6.07
		l22.94,0.2l-0.05,6.01l-4.92-0.04c-0.57,0-0.84,0.95-0.84,0.96l-0.15,19.64c-0.01,0.66,1.04,0.94,1.05,0.94l4.68,0.02l-0.05,5.77
		l-17.14-0.15l-11.74-11.95l-0.04,5.12c-0.01,0.88,0.88,0.96,0.99,0.97l4.7,0.04L125.9,42.69z M103.91,41.24l20.75,0.18l0.03-3.57
		l-3.48-0.03c-0.79-0.05-2.2-0.58-2.19-2.23l0.07-8.14l13.5,13.73l15.37,0.13l0.03-3.27l-3.57-0.03c-0.89-0.2-2.16-0.86-2.15-2.18
		l0.17-19.8c0.2-0.86,0.84-2.06,2.08-2.05l3.67,0.03l0.03-3.51l-20.44-0.18l-0.03,3.57l3.33,0.05c0.74,0.2,2,0.88,1.99,2.16
		L133,25.11l-14.36-14.61l-14.24-0.12l-0.03,3.38l3.34,0.09c0.34,0.16,2.01,1.01,2,2.24l-0.17,19.33c-0.11,0.85-0.74,2.31-2.34,2.3
		l-3.26-0.03L103.91,41.24z"/>
</g>
<g>
	<path class="st0" d="M187.51,37.24v4.82h22.01v-4.82h-4.11c0,0-1.58-0.09-1.58-1.58s0-6.63,0-6.63l12.73,12.73h16.26v-4.52h-4.2
		c0,0-1.54-0.36-1.54-1.54s0-19.8,0-19.8s0.36-1.44,1.44-1.44c1.08,0,4.3,0,4.3,0V9.7h-21.69v4.82h3.79c0,0,1.54,0.4,1.54,1.54
		s0,7.48,0,7.48l-13.6-13.6h-15.12v4.63h3.7c0,0,1.65,0.76,1.65,1.65c0,0.89,0,19.33,0,19.33s-0.22,1.7-1.7,1.7
		C189.92,37.24,187.51,37.24,187.51,37.24z"/>
	<path class="st0" d="M210.14,42.69h-23.26v-6.07h4.51c0.91,0,1.07-1.11,1.08-1.15l-0.01-19.25c0-0.24-0.55-0.72-1.17-1.03h-4.19
		V9.31h16l12.72,12.72v-5.97c0-0.54-0.77-0.84-1.01-0.91h-4.32V9.08h22.94v6.01h-4.92c-0.57,0-0.83,0.96-0.83,0.97l0.02,19.64
		c0,0.66,1.05,0.93,1.06,0.93l4.68-0.02v5.77H216.3l-11.85-11.85v5.12c0,0.88,0.89,0.95,0.99,0.96l4.7,0V42.69z M188.14,41.44h20.76
		v-3.57h-3.48c-0.79-0.04-2.21-0.56-2.21-2.21v-8.14l13.62,13.62h15.37v-3.27h-3.57c-0.89-0.19-2.17-0.84-2.17-2.16V15.9
		c0.19-0.86,0.82-2.06,2.06-2.06h3.67v-3.52h-20.44v3.57l3.33,0.02c0.75,0.19,2.01,0.86,2.01,2.14v8.99L202.6,10.56h-14.24v3.38
		L191.7,14c0.34,0.15,2.02,0.99,2.02,2.22v19.33c-0.11,0.86-0.72,2.32-2.32,2.32h-3.26V41.44z"/>
</g>
<g>
	<path class="st0" d="M156.53,9.7h24.68v5.09h-4.02c0,0-1.58,0.04-1.58,1.58s0,19.62,0,19.62s0.27,1.42,1.42,1.42s4.18,0,4.18,0
		v4.65h-24.68v-4.69h3.88c0,0,1.67-0.31,1.67-1.67c0-1.36,0-19.53,0-19.53s-0.45-1.64-1.64-1.64c-1.19,0-3.92,0-3.92,0V9.7z"/>
	<path class="st0" d="M181.64,42.48h-25.52v-5.52h4.3c-0.02,0,1.26-0.26,1.26-1.26V16.23c-0.08-0.24-0.46-1.29-1.22-1.29h-4.33V9.28
		h25.52v5.92h-4.43c-0.18,0.01-1.17,0.1-1.17,1.17v19.62c0,0,0,0,0,0c0.01,0,0.23,1,1,1h4.6V42.48z M156.95,41.64h23.85v-3.82h-3.77
		c-1.18,0-1.71-1.15-1.83-1.76l-0.01-19.69c0-1.54,1.3-1.98,1.99-2h3.61v-4.26h-23.85v4h3.5c1.5,0,2.02,1.87,2.04,1.95l0.01,0.11
		V35.7c0,1.35-1.32,1.95-2.01,2.08l-3.54,0.01V41.64z"/>
</g>
<g>
	<path class="st0" d="M240.67,9.67l24.68,0.06l-0.01,5.09l-4.02-0.01c0,0-1.58,0.04-1.59,1.58s-0.05,19.62-0.05,19.62
		s0.26,1.42,1.41,1.42s4.18,0.01,4.18,0.01l-0.01,4.65l-24.68-0.06l0.01-4.69l3.88,0.01c0,0,1.67-0.31,1.68-1.67
		c0-1.36,0.05-19.53,0.05-19.53s-0.44-1.64-1.64-1.64s-3.92-0.01-3.92-0.01L240.67,9.67z"/>
	<path class="st0" d="M265.69,42.51l-25.52-0.06l0.01-5.52l4.3,0.01c-0.02,0,1.26-0.26,1.26-1.25l0.05-19.47
		c-0.08-0.24-0.46-1.29-1.22-1.29l-4.33-0.01l0.01-5.67l25.52,0.06l-0.01,5.92l-4.43-0.01c-0.18,0.01-1.17,0.1-1.17,1.16
		l-0.05,19.62c0,0,0,0,0,0c0.01,0,0.22,1,1,1l4.6,0.01L265.69,42.51z M241.01,41.62l23.85,0.06l0.01-3.82l-3.77-0.01
		c-1.18,0-1.71-1.15-1.82-1.76l0.04-19.69c0-1.54,1.31-1.98,1.99-2l3.61,0.01l0.01-4.26l-23.85-0.06l-0.01,4l3.5,0.01
		c1.5,0,2.02,1.87,2.04,1.95l0.01,0.11l-0.05,19.53c0,1.35-1.32,1.95-2.02,2.08l-3.54,0L241.01,41.62z"/>
</g>
<g>
	<path class="st0" d="M94.9,37.45c-1.93,0-2.58-2.58-2.58-2.58l-7.5-24.86H66.68l-7.23,24.86c-0.57,2.31-2.24,2.24-2.24,2.24h-4.08
		v4.76h22.19v-4.23h-3.18c-3.35-1.61,0.17-6.56,0.17-6.56h7.13c3.65,5.05,0,6.49,0,6.49h-3.38v4.3h22.45v-4.43
		C98.51,37.45,96.84,37.45,94.9,37.45z M73.42,26.37l2.39-8.99l2.61,8.99H73.42z"/>
</g>
<g>
	<path class="st0" d="M44.23,10.01c-6.61,0-28.1,0-28.1,0v4.37c0,0,5.36-0.67,5.36,4.15s0,16.94,0,16.94s-0.2,2.08-2.08,2.08
		s-3.28,0-3.28,0v4.42H39.5v-4.82h-4.08c0,0-1.44-0.54-1.44-1.44c0-0.9,0-3.92,0-3.92s0.03-1.04,2.88-1.04c2.85,0,10.88,0,10.88,0
		s3.28-0.81,3.28-4.75s0-12.42,0-12.42S50.84,10.01,44.23,10.01z M39.13,25.37c0,0.65-0.53,1.17-1.17,1.17h-3.7V14.3h3.7
		c0.65,0,1.17,0.53,1.17,1.17V25.37z"/>
	<path class="st0" d="M40.13,42.6H15.51v-5.67h3.91c1.29,0,1.45-1.45,1.45-1.51l0-16.88c0-1.14-0.34-2.02-1-2.6
		c-1.34-1.19-3.63-0.93-3.65-0.93l-0.7,0.08l0-5.7h28.72c7.12,0,7.4,4,7.41,4.17l0,12.45c0,3.5-2.46,5.04-3.76,5.36l-11.03,0.02
		c-1.98,0-2.27,0.52-2.27,0.53l0.01,3.8c0,0.29,0.56,0.65,0.94,0.81h4.59V42.6z M16.76,41.35h22.12v-3.57l-3.68-0.04
		c-0.19-0.07-1.85-0.72-1.85-2.03V31.8c0.01-0.29,0.22-1.66,3.5-1.66h10.88c-0.04-0.01,2.66-0.75,2.66-4.13V13.58
		c-0.01-0.08-0.3-2.95-6.16-2.95H16.76v3.09c0.01,0,0.02,0,0.03,0c0.96,0,2.67,0.17,3.9,1.26c0.95,0.84,1.43,2.03,1.43,3.54v16.94
		c-0.09,0.97-0.77,2.7-2.7,2.7h-2.66V41.35z M37.95,27.17h-4.32v-13.5h4.32c0.99,0,1.8,0.81,1.8,1.8v9.9
		C39.75,26.36,38.94,27.17,37.95,27.17z M34.88,25.92h3.07c0.3,0,0.55-0.25,0.55-0.55v-9.9c0-0.3-0.25-0.55-0.55-0.55h-3.07V25.92z"
		/>
</g>
</svg>
